<svg xmlns="http://www.w3.org/2000/svg" viewBox="0 0 512 512" width="64" height="64">
    <path fill="#7952B3" d="M44 0h424c24.3 0 44 19.7 44 44v424c0 24.3-19.7 44-44 44H44c-24.3 0-44-19.7-44-44V44C0 19.7 19.7 0 44 0z"/>
    <path fill="#FFF" d="M149.2 119.5h109.7c37 0 59.8 17.5 59.8 45.4 0 20.3-12.7 36.4-31.5 42.6 24.8 5.7 40.5 24.1 40.5 49.9 0 32.5-26 53.6-67.6 53.6H149.2V119.5zm53 66.8h46c14 0 21.6-5.8 21.6-15.7 0-9.8-7.6-15.3-21.6-15.3h-46v31zm0 84.1h51.7c16 0 24.8-6.5 24.8-17.5 0-11-8.8-17.5-24.8-17.5h-51.7v35z"/>
</svg>
